<svg width="121.830200" height="140.002777" viewBox="0 0 121.83 140.003" fill="none" xmlns="http://www.w3.org/2000/svg" xmlns:xlink="http://www.w3.org/1999/xlink">
	<desc>
			Created with Pixso.
	</desc>
	<defs/>
	<rect id="Прямоугольник 1" x="67.187469" y="32.276627" rx="9.000000" width="32.000000" height="100.000000" transform="rotate(35 67.187469 32.276627)" fill="#FFFFFF" fill-opacity="1.000000"/>
	<rect id="Прямоугольник 1" x="67.555847" y="34.365723" rx="9.000000" width="29.000000" height="97.000000" transform="rotate(35 67.555847 34.365723)" stroke="#000000" stroke-opacity="1.000000" stroke-width="3.000000"/>
	<rect id="Прямоугольник 1" x="48.753998" y="37.681000" rx="11.500000" width="23.000000" height="57.000000" transform="rotate(-55 48.753998 37.681000)" fill="#FFFFFF" fill-opacity="1.000000"/>
	<rect id="Прямоугольник 1" x="50.843079" y="37.312637" rx="10.000000" width="20.000000" height="54.000000" transform="rotate(-55 50.843079 37.312637)" stroke="#000000" stroke-opacity="1.000000" stroke-width="3.000000"/>
	<path id="Форма 1" d="M90.76 10.94L98.07 16.06L105.38 21.17L97.08 47.1L83.16 37.35L69.23 27.6L90.76 10.94Z" fill="#FFFFFF" fill-opacity="1.000000" fill-rule="evenodd"/>
	<path id="Форма 1" d="M90.85 14.66L101.85 22.36L95.47 42.31L74.29 27.48L90.85 14.66ZM90.76 10.94L105.38 21.17L98.04 44.11L97.08 47.1L69.23 27.6L90.76 10.94Z" fill="#000000" fill-opacity="1.000000" fill-rule="evenodd"/>
	<circle id="Эллипс 1" r="4.000000" transform="matrix(0.819152 0.573576 -0.573576 0.819152 65.3809 62.7518)" fill="#000000" fill-opacity="1.000000"/>
	<circle id="Эллипс 1" r="4.000000" transform="matrix(0.819152 0.573576 -0.573576 0.819152 56.7773 75.0391)" fill="#000000" fill-opacity="1.000000"/>
	<circle id="Эллипс 1" r="4.000000" transform="matrix(0.819152 0.573576 -0.573576 0.819152 48.1736 87.3264)" fill="#000000" fill-opacity="1.000000"/>
	<circle id="Эллипс 1" r="4.000000" transform="matrix(0.819152 0.573576 -0.573576 0.819152 39.57 99.6137)" fill="#000000" fill-opacity="1.000000"/>
</svg>
